<?xml version="1.0" standalone="no"?>
<!DOCTYPE svg PUBLIC "-//W3C//DTD SVG 20010904//EN"
 "http://www.w3.org/TR/2001/REC-SVG-20010904/DTD/svg10.dtd">
<svg version="1.0" xmlns="http://www.w3.org/2000/svg"
 width="44.000000pt" height="44.000000pt" viewBox="0 0 88.000000 88.000000"
 preserveAspectRatio="xMidYMid meet">

<g transform="translate(0.000000,88.000000) scale(0.100000,-0.100000)"
fill="#000000" stroke="none">
<path d="M0 440 l0 -440 440 0 440 0 0 440 0 440 -440 0 -440 0 0 -440z m210
174 c-45 -52 -60 -93 -60 -169 0 -76 18 -127 62 -173 22 -22 29 -35 22 -42
-16 -16 -40 -2 -69 40 -62 89 -74 209 -29 298 29 59 81 109 97 93 7 -7 -1 -22
-23 -47z m487 -7 c39 -59 53 -104 53 -177 0 -86 -68 -210 -115 -210 -23 0 -18
15 15 54 42 48 60 96 60 163 -1 71 -17 119 -59 171 -37 47 -38 54 -8 50 13 -2
34 -22 54 -51z m-266 4 c16 -16 29 -38 29 -49 0 -28 10 -52 22 -52 6 0 7 11 4
26 -6 22 -5 24 12 15 11 -6 27 -27 37 -47 24 -52 15 -108 -24 -148 -31 -31
-57 -30 -29 1 17 19 22 36 18 68 -1 11 -4 15 -7 8 -2 -7 -13 -13 -24 -13 -14
0 -19 7 -19 29 0 16 -6 34 -14 40 -11 9 -12 7 -9 -12 3 -15 -4 -30 -21 -46
-31 -29 -33 -61 -6 -86 28 -25 17 -31 -19 -9 -62 36 -69 94 -22 171 31 50 40
96 21 108 -15 10 -12 25 6 25 8 0 29 -13 45 -29z m177 -338 c-3 -16 -20 -18
-162 -21 -90 -1 -164 2 -169 7 -25 25 9 31 169 31 152 0 165 -1 162 -17z"/>
</g>
</svg>
